<?xml version="1.0" encoding="UTF-8"?>
<!DOCTYPE svg PUBLIC "-//W3C//DTD SVG 1.1//EN" "http://www.w3.org/Graphics/SVG/1.1/DTD/svg11.dtd">
<svg xmlns="http://www.w3.org/2000/svg" version="1.1" width="546px" height="546px" style="shape-rendering:geometricPrecision; text-rendering:geometricPrecision; image-rendering:optimizeQuality; fill-rule:evenodd; clip-rule:evenodd" xmlns:xlink="http://www.w3.org/1999/xlink">
<g><path style="opacity:0.997" fill="#042ba6" d="M 23.5,-0.5 C 30.1667,-0.5 36.8333,-0.5 43.5,-0.5C 91.5822,62.6502 139.916,125.65 188.5,188.5C 181.529,192.322 174.862,196.655 168.5,201.5C 168.046,198.86 166.879,196.527 165,194.5C 115.249,130.651 65.7494,66.6506 16.5,2.5C 18.8546,1.34143 21.1879,0.341426 23.5,-0.5 Z"/></g>
<g><path style="opacity:0.997" fill="#042fab" d="M 43.5,-0.5 C 53.1667,-0.5 62.8333,-0.5 72.5,-0.5C 118.491,59.47 164.491,119.47 210.5,179.5C 203.234,182.46 195.901,185.46 188.5,188.5C 139.916,125.65 91.5822,62.6502 43.5,-0.5 Z"/></g>
<g><path style="opacity:0.997" fill="#0634b1" d="M 72.5,-0.5 C 83.5,-0.5 94.5,-0.5 105.5,-0.5C 146.815,53.4767 188.482,107.143 230.5,160.5C 231.683,176.796 232.683,193.129 233.5,209.5C 228.905,201.996 223.572,194.996 217.5,188.5C 217.5,185.167 217.5,181.833 217.5,178.5C 215.194,178.993 212.861,179.326 210.5,179.5C 164.491,119.47 118.491,59.47 72.5,-0.5 Z"/></g>
<g><path style="opacity:0.996" fill="#0539b8" d="M 105.5,-0.5 C 115.167,-0.5 124.833,-0.5 134.5,-0.5C 165.603,40.053 196.936,80.3864 228.5,120.5C 229.427,133.81 230.093,147.143 230.5,160.5C 188.482,107.143 146.815,53.4767 105.5,-0.5 Z"/></g>
<g><path style="opacity:0.994" fill="#073fbf" d="M 134.5,-0.5 C 154.167,-0.5 173.833,-0.5 193.5,-0.5C 204.191,13.8518 214.858,28.1851 225.5,42.5C 202.439,65.9299 202.939,88.9299 227,111.5C 228.289,114.351 228.789,117.351 228.5,120.5C 196.936,80.3864 165.603,40.053 134.5,-0.5 Z"/></g>
<g><path style="opacity:0.999" fill="#074bd1" d="M 193.5,-0.5 C 214.167,-0.5 234.833,-0.5 255.5,-0.5C 351.936,124.719 448.603,249.719 545.5,374.5C 545.5,386.833 545.5,399.167 545.5,411.5C 459.481,301.638 373.981,191.305 289,80.5C 288.617,81.056 288.117,81.3893 287.5,81.5C 288.883,59.3963 279.216,44.5629 258.5,37C 252.235,35.5158 245.902,35.1824 239.5,36C 234.661,37.9213 229.994,40.088 225.5,42.5C 214.858,28.1851 204.191,13.8518 193.5,-0.5 Z"/></g>
<g><path style="opacity:0.999" fill="#074fd7" d="M 255.5,-0.5 C 265.167,-0.5 274.833,-0.5 284.5,-0.5C 371.511,112.205 458.511,224.872 545.5,337.5C 545.5,349.833 545.5,362.167 545.5,374.5C 448.603,249.719 351.936,124.719 255.5,-0.5 Z"/></g>
<g><path style="opacity:0.998" fill="#0754dd" d="M 284.5,-0.5 C 294.167,-0.5 303.833,-0.5 313.5,-0.5C 390.482,99.8097 467.815,199.81 545.5,299.5C 545.5,312.167 545.5,324.833 545.5,337.5C 458.511,224.872 371.511,112.205 284.5,-0.5 Z"/></g>
<g><path style="opacity:0.998" fill="#0759e3" d="M 313.5,-0.5 C 324.833,-0.5 336.167,-0.5 347.5,-0.5C 413.019,85.2033 479.019,170.537 545.5,255.5C 545.5,270.167 545.5,284.833 545.5,299.5C 467.815,199.81 390.482,99.8097 313.5,-0.5 Z"/></g>
<g><path style="opacity:0.998" fill="#085eea" d="M 347.5,-0.5 C 356.833,-0.5 366.167,-0.5 375.5,-0.5C 432.197,72.5241 488.864,145.524 545.5,218.5C 545.5,230.833 545.5,243.167 545.5,255.5C 479.019,170.537 413.019,85.2033 347.5,-0.5 Z"/></g>
<g><path style="opacity:0.998" fill="#0862f0" d="M 375.5,-0.5 C 385.167,-0.5 394.833,-0.5 404.5,-0.5C 451.531,60.1908 498.531,120.857 545.5,181.5C 545.5,193.833 545.5,206.167 545.5,218.5C 488.864,145.524 432.197,72.5241 375.5,-0.5 Z"/></g>
<g><path style="opacity:0.997" fill="#0866f6" d="M 404.5,-0.5 C 414.167,-0.5 423.833,-0.5 433.5,-0.5C 470.482,47.8103 507.815,95.8103 545.5,143.5C 545.5,156.167 545.5,168.833 545.5,181.5C 498.531,120.857 451.531,60.1908 404.5,-0.5 Z"/></g>
<g><path style="opacity:0.991" fill="#096cfd" d="M 433.5,-0.5 C 462.833,-0.5 492.167,-0.5 521.5,-0.5C 533.627,2.29235 541.627,9.62568 545.5,21.5C 545.5,62.1667 545.5,102.833 545.5,143.5C 507.815,95.8103 470.482,47.8103 433.5,-0.5 Z"/></g>
<g><path style="opacity:0.998" fill="#04279f" d="M 16.5,2.5 C 65.7494,66.6506 115.249,130.651 165,194.5C 166.879,196.527 168.046,198.86 168.5,201.5C 163.193,206.472 157.86,211.472 152.5,216.5C 102.185,150.857 51.5181,85.5234 0.5,20.5C 3.37873,12.2896 8.71207,6.28956 16.5,2.5 Z"/></g>
<g><path style="opacity:0.997" fill="#032299" d="M 0.5,20.5 C 51.5181,85.5234 102.185,150.857 152.5,216.5C 146.741,224.251 141.408,232.251 136.5,240.5C 91.5921,180.591 45.9254,121.258 -0.5,62.5C -0.5,49.8333 -0.5,37.1667 -0.5,24.5C 0.434475,23.4324 0.767809,22.099 0.5,20.5 Z"/></g>
<g><path style="opacity:1" fill="#fcfdfe" d="M 287.5,81.5 C 286.671,88.4872 284.171,94.8205 280,100.5C 274.698,106.481 268.865,111.648 262.5,116C 264.787,131.462 266.787,146.962 268.5,162.5C 292.5,162.5 316.5,162.5 340.5,162.5C 340.5,171.833 340.5,181.167 340.5,190.5C 317.006,191.498 293.339,191.831 269.5,191.5C 270.208,200.207 271.208,208.874 272.5,217.5C 294.836,217.333 317.169,217.5 339.5,218C 344.525,219.689 348.359,222.856 351,227.5C 365.413,254.66 380.079,281.66 395,308.5C 397.917,310.393 401.084,310.893 404.5,310C 411.956,307.053 419.622,304.886 427.5,303.5C 429.366,302.986 431.2,302.32 433,301.5C 433.5,301.833 434,302.167 434.5,302.5C 436.366,308.993 438.366,315.327 440.5,321.5C 440.762,322.978 440.429,324.311 439.5,325.5C 433.023,327.363 426.69,329.363 420.5,331.5C 406.008,335.258 391.675,339.258 377.5,343.5C 376.504,343.586 375.671,343.252 375,342.5C 359.587,314.006 343.92,285.672 328,257.5C 325.687,254.928 322.854,253.261 319.5,252.5C 291.446,252.15 263.446,251.15 235.5,249.5C 235.165,236.148 234.499,222.815 233.5,209.5C 232.683,193.129 231.683,176.796 230.5,160.5C 230.093,147.143 229.427,133.81 228.5,120.5C 228.789,117.351 228.289,114.351 227,111.5C 202.939,88.9299 202.439,65.9299 225.5,42.5C 229.994,40.088 234.661,37.9213 239.5,36C 245.902,35.1824 252.235,35.5158 258.5,37C 279.216,44.5629 288.883,59.3963 287.5,81.5 Z"/></g>
<g><path style="opacity:0.996" fill="#031d92" d="M -0.5,62.5 C 45.9254,121.258 91.5921,180.591 136.5,240.5C 133.106,248.35 130.106,256.35 127.5,264.5C 85.2151,209.547 42.5485,154.88 -0.5,100.5C -0.5,87.8333 -0.5,75.1667 -0.5,62.5 Z"/></g>
<g><path style="opacity:1" fill="#0646ca" d="M 545.5,411.5 C 545.5,425.833 545.5,440.167 545.5,454.5C 510.53,410.019 475.697,365.353 441,320.5C 440.601,320.728 440.435,321.062 440.5,321.5C 438.366,315.327 436.366,308.993 434.5,302.5C 434,302.167 433.5,301.833 433,301.5C 431.2,302.32 429.366,302.986 427.5,303.5C 398.852,265.524 369.852,227.857 340.5,190.5C 340.5,181.167 340.5,171.833 340.5,162.5C 316.5,162.5 292.5,162.5 268.5,162.5C 266.787,146.962 264.787,131.462 262.5,116C 268.865,111.648 274.698,106.481 280,100.5C 284.171,94.8205 286.671,88.4872 287.5,81.5C 288.117,81.3893 288.617,81.056 289,80.5C 373.981,191.305 459.481,301.638 545.5,411.5 Z"/></g>
<g><path style="opacity:0.996" fill="#03198c" d="M -0.5,100.5 C 42.5485,154.88 85.2151,209.547 127.5,264.5C 125.135,275.351 124.135,286.351 124.5,297.5C 82.8333,244.167 41.1667,190.833 -0.5,137.5C -0.5,125.167 -0.5,112.833 -0.5,100.5 Z"/></g>
<g><path style="opacity:0.996" fill="#031586" d="M -0.5,137.5 C 41.1667,190.833 82.8333,244.167 124.5,297.5C 128.301,319.902 135.301,341.236 145.5,361.5C 142.237,359.031 139.403,356.031 137,352.5C 91.3886,292.917 45.5553,233.584 -0.5,174.5C -0.5,162.167 -0.5,149.833 -0.5,137.5 Z"/></g>
<g><path style="opacity:0.998" fill="#02107f" d="M -0.5,174.5 C 45.5553,233.584 91.3886,292.917 137,352.5C 139.403,356.031 142.237,359.031 145.5,361.5C 173.749,415.024 206.249,465.691 243,513.5C 246.049,509.957 248.882,506.291 251.5,502.5C 253.371,502.859 254.871,503.859 256,505.5C 265.999,518.994 276.166,532.327 286.5,545.5C 275.167,545.5 263.833,545.5 252.5,545.5C 168.518,436.19 84.1849,327.19 -0.5,218.5C -0.5,203.833 -0.5,189.167 -0.5,174.5 Z"/></g>
<g><path style="opacity:1" fill="#fdfdfe" d="M 217.5,188.5 C 217.815,199.863 218.482,211.196 219.5,222.5C 214.311,223.432 209.644,225.432 205.5,228.5C 194.704,233.629 185.704,240.962 178.5,250.5C 157.347,281.615 157.18,312.949 178,344.5C 203.107,373.759 233.94,382.092 270.5,369.5C 281.28,364.784 290.613,358.117 298.5,349.5C 307.616,339.939 313.616,328.606 316.5,315.5C 319.176,302.287 319.01,288.954 316,275.5C 314.317,271.832 312.984,268.165 312,264.5C 326.006,287.841 339.506,311.508 352.5,335.5C 349.819,341.526 347.152,347.526 344.5,353.5C 340.563,361.041 336.896,368.707 333.5,376.5C 329.262,383.302 325.262,390.302 321.5,397.5C 317.167,404.833 312.833,412.167 308.5,419.5C 298.833,434.167 289.167,448.833 279.5,463.5C 270.199,476.477 260.865,489.477 251.5,502.5C 248.882,506.291 246.049,509.957 243,513.5C 206.249,465.691 173.749,415.024 145.5,361.5C 135.301,341.236 128.301,319.902 124.5,297.5C 124.135,286.351 125.135,275.351 127.5,264.5C 130.106,256.35 133.106,248.35 136.5,240.5C 141.408,232.251 146.741,224.251 152.5,216.5C 157.86,211.472 163.193,206.472 168.5,201.5C 174.862,196.655 181.529,192.322 188.5,188.5C 195.901,185.46 203.234,182.46 210.5,179.5C 212.861,179.326 215.194,178.993 217.5,178.5C 217.5,181.833 217.5,185.167 217.5,188.5 Z"/></g>
<g><path style="opacity:1" fill="#0941c3" d="M 340.5,190.5 C 369.852,227.857 398.852,265.524 427.5,303.5C 419.622,304.886 411.956,307.053 404.5,310C 401.084,310.893 397.917,310.393 395,308.5C 380.079,281.66 365.413,254.66 351,227.5C 348.359,222.856 344.525,219.689 339.5,218C 317.169,217.5 294.836,217.333 272.5,217.5C 271.208,208.874 270.208,200.207 269.5,191.5C 293.339,191.831 317.006,191.498 340.5,190.5 Z"/></g>
<g><path style="opacity:0.998" fill="#020b79" d="M -0.5,218.5 C 84.1849,327.19 168.518,436.19 252.5,545.5C 242.833,545.5 233.167,545.5 223.5,545.5C 149.548,448.586 74.8809,352.252 -0.5,256.5C -0.5,243.833 -0.5,231.167 -0.5,218.5 Z"/></g>
<g><path style="opacity:1" fill="#0428a0" d="M 205.5,228.5 C 236.258,269.014 267.258,309.347 298.5,349.5C 290.613,358.117 281.28,364.784 270.5,369.5C 240.557,329.283 209.89,289.616 178.5,250.5C 185.704,240.962 194.704,233.629 205.5,228.5 Z"/></g>
<g><path style="opacity:1" fill="#052197" d="M 178.5,250.5 C 209.89,289.616 240.557,329.283 270.5,369.5C 233.94,382.092 203.107,373.759 178,344.5C 157.18,312.949 157.347,281.615 178.5,250.5 Z"/></g>
<g><path style="opacity:1" fill="#627ccc" d="M 235.5,249.5 C 263.446,251.15 291.446,252.15 319.5,252.5C 302.167,252.5 284.833,252.5 267.5,252.5C 256.833,252.5 246.167,252.5 235.5,252.5C 235.5,251.5 235.5,250.5 235.5,249.5 Z"/></g>
<g><path style="opacity:1" fill="#072faa" d="M 217.5,188.5 C 223.572,194.996 228.905,201.996 233.5,209.5C 234.499,222.815 235.165,236.148 235.5,249.5C 235.5,250.5 235.5,251.5 235.5,252.5C 246.167,252.5 256.833,252.5 267.5,252.5C 283.603,273.72 299.936,294.72 316.5,315.5C 313.616,328.606 307.616,339.939 298.5,349.5C 267.258,309.347 236.258,269.014 205.5,228.5C 209.644,225.432 214.311,223.432 219.5,222.5C 218.482,211.196 217.815,199.863 217.5,188.5 Z"/></g>
<g><path style="opacity:0.998" fill="#010773" d="M -0.5,256.5 C 74.8809,352.252 149.548,448.586 223.5,545.5C 213.833,545.5 204.167,545.5 194.5,545.5C 129.973,461.1 64.9725,377.1 -0.5,293.5C -0.5,281.167 -0.5,268.833 -0.5,256.5 Z"/></g>
<g><path style="opacity:0.999" fill="#0635b3" d="M 267.5,252.5 C 284.833,252.5 302.167,252.5 319.5,252.5C 322.854,253.261 325.687,254.928 328,257.5C 343.92,285.672 359.587,314.006 375,342.5C 375.671,343.252 376.504,343.586 377.5,343.5C 378.552,343.351 379.552,343.517 380.5,344C 431.054,409.62 481.721,475.12 532.5,540.5C 529.81,542.729 526.81,544.396 523.5,545.5C 513.5,545.5 503.5,545.5 493.5,545.5C 444.567,480.904 394.9,416.904 344.5,353.5C 347.152,347.526 349.819,341.526 352.5,335.5C 339.506,311.508 326.006,287.841 312,264.5C 312.984,268.165 314.317,271.832 316,275.5C 319.01,288.954 319.176,302.287 316.5,315.5C 299.936,294.72 283.603,273.72 267.5,252.5 Z"/></g>
<g><path style="opacity:0.997" fill="#01026d" d="M -0.5,293.5 C 64.9725,377.1 129.973,461.1 194.5,545.5C 184.833,545.5 175.167,545.5 165.5,545.5C 110.881,473.253 55.548,401.586 -0.5,330.5C -0.5,318.167 -0.5,305.833 -0.5,293.5 Z"/></g>
<g><path style="opacity:1" fill="#0642c4" d="M 545.5,454.5 C 545.5,467.167 545.5,479.833 545.5,492.5C 503.482,439.143 461.815,385.477 420.5,331.5C 426.69,329.363 433.023,327.363 439.5,325.5C 440.429,324.311 440.762,322.978 440.5,321.5C 440.435,321.062 440.601,320.728 441,320.5C 475.697,365.353 510.53,410.019 545.5,454.5 Z"/></g>
<g><path style="opacity:0.994" fill="#01006a" d="M -0.5,330.5 C 55.548,401.586 110.881,473.253 165.5,545.5C 117.833,545.5 70.1667,545.5 22.5,545.5C 10.3326,541.845 2.66596,533.845 -0.5,521.5C -0.5,457.833 -0.5,394.167 -0.5,330.5 Z"/></g>
<g><path style="opacity:0.997" fill="#053bbb" d="M 420.5,331.5 C 461.815,385.477 503.482,439.143 545.5,492.5C 545.5,502.833 545.5,513.167 545.5,523.5C 543.338,530.824 539.004,536.49 532.5,540.5C 481.721,475.12 431.054,409.62 380.5,344C 379.552,343.517 378.552,343.351 377.5,343.5C 391.675,339.258 406.008,335.258 420.5,331.5 Z"/></g>
<g><path style="opacity:1" fill="#0530ab" d="M 344.5,353.5 C 394.9,416.904 444.567,480.904 493.5,545.5C 483.833,545.5 474.167,545.5 464.5,545.5C 421.185,488.857 377.518,432.523 333.5,376.5C 336.896,368.707 340.563,361.041 344.5,353.5 Z"/></g>
<g><path style="opacity:1" fill="#042ba5" d="M 333.5,376.5 C 377.518,432.523 421.185,488.857 464.5,545.5C 454.833,545.5 445.167,545.5 435.5,545.5C 397.876,495.876 359.876,446.543 321.5,397.5C 325.262,390.302 329.262,383.302 333.5,376.5 Z"/></g>
<g><path style="opacity:1" fill="#04279f" d="M 321.5,397.5 C 359.876,446.543 397.876,495.876 435.5,545.5C 425.833,545.5 416.167,545.5 406.5,545.5C 375.169,503.533 343.336,461.867 311,420.5C 310.329,419.748 309.496,419.414 308.5,419.5C 312.833,412.167 317.167,404.833 321.5,397.5 Z"/></g>
<g><path style="opacity:1" fill="#032197" d="M 308.5,419.5 C 309.496,419.414 310.329,419.748 311,420.5C 343.336,461.867 375.169,503.533 406.5,545.5C 385.833,545.5 365.167,545.5 344.5,545.5C 323.767,519.044 303.267,492.377 283,465.5C 282.184,464.177 281.017,463.511 279.5,463.5C 289.167,448.833 298.833,434.167 308.5,419.5 Z"/></g>
<g><path style="opacity:1" fill="#03188b" d="M 279.5,463.5 C 281.017,463.511 282.184,464.177 283,465.5C 303.267,492.377 323.767,519.044 344.5,545.5C 325.167,545.5 305.833,545.5 286.5,545.5C 276.166,532.327 265.999,518.994 256,505.5C 254.871,503.859 253.371,502.859 251.5,502.5C 260.865,489.477 270.199,476.477 279.5,463.5 Z"/></g>
</svg>
